<svg 
 xmlns="http://www.w3.org/2000/svg"
 xmlns:xlink="http://www.w3.org/1999/xlink"
 width="49px" height="43px">
<path fill-rule="evenodd"  fill="rgb(2, 75, 118)"
 d="M47.885,16.343 L43.986,20.216 L38.379,25.786 L39.911,27.308 C41.242,28.630 41.242,30.781 39.911,32.103 C39.282,32.729 38.465,33.054 37.639,33.088 C37.605,33.909 37.277,34.720 36.647,35.346 C36.018,35.971 35.201,36.296 34.375,36.330 C34.341,37.151 34.013,37.962 33.383,38.587 C32.772,39.194 31.970,39.538 31.112,39.573 C31.077,40.425 30.730,41.222 30.119,41.829 C29.475,42.469 28.617,42.822 27.705,42.822 C26.794,42.822 25.936,42.470 25.291,41.829 L21.127,37.693 L19.389,39.419 C18.802,40.002 18.030,40.294 17.258,40.294 C16.487,40.294 15.715,40.002 15.128,39.419 L14.561,38.856 C14.063,38.361 13.762,37.725 13.693,37.039 C13.002,36.971 12.362,36.671 11.864,36.177 L11.297,35.613 C10.799,35.119 10.497,34.482 10.429,33.794 C9.761,33.729 9.111,33.442 8.600,32.935 L8.033,32.372 C7.535,31.878 7.234,31.241 7.165,30.555 C6.474,30.487 5.834,30.187 5.336,29.693 L4.769,29.129 C4.200,28.565 3.886,27.813 3.886,27.014 C3.886,26.214 4.200,25.462 4.769,24.898 L6.507,23.171 L3.354,20.040 L0.457,17.162 C0.025,16.733 0.025,16.038 0.457,15.609 C0.889,15.180 1.589,15.180 2.021,15.609 L4.918,18.486 L26.856,40.276 C27.324,40.741 28.087,40.741 28.555,40.276 C29.024,39.810 29.024,39.053 28.555,38.587 L22.355,32.429 C21.923,32.000 21.923,31.304 22.355,30.875 C22.787,30.446 23.487,30.446 23.919,30.875 L30.119,37.034 C30.346,37.259 30.648,37.383 30.969,37.383 C31.290,37.383 31.592,37.259 31.819,37.034 C32.288,36.568 32.288,35.811 31.819,35.345 L25.619,29.187 C25.187,28.758 25.187,28.063 25.619,27.634 C26.051,27.205 26.751,27.205 27.183,27.634 L33.383,33.792 C33.852,34.257 34.614,34.257 35.083,33.792 C35.310,33.566 35.435,33.267 35.435,32.948 C35.435,32.629 35.310,32.329 35.083,32.103 L28.883,25.945 C28.451,25.516 28.451,24.821 28.883,24.392 C29.315,23.963 30.015,23.963 30.447,24.392 L36.647,30.550 C37.116,31.016 37.878,31.016 38.347,30.550 C38.815,30.085 38.816,29.327 38.347,28.862 L36.032,26.562 L23.261,13.877 L18.371,13.453 L18.063,14.968 C17.508,17.705 14.815,19.482 12.059,18.931 C9.304,18.379 7.514,15.704 8.069,12.967 L8.572,10.489 C9.561,5.618 14.349,2.452 19.252,3.419 C19.253,3.419 19.254,3.419 19.255,3.419 L30.160,5.358 C30.320,4.912 30.576,4.494 30.935,4.137 L33.265,1.822 C33.893,1.199 34.728,0.855 35.616,0.855 C36.504,0.855 37.339,1.199 37.967,1.822 L47.885,11.674 C49.181,12.961 49.181,15.056 47.885,16.343 ZM7.962,24.832 L6.333,26.451 C6.020,26.761 6.020,27.266 6.333,27.576 L6.900,28.139 C7.212,28.449 7.721,28.450 8.033,28.139 L9.663,26.521 L7.962,24.832 ZM11.227,28.074 L9.597,29.693 C9.284,30.003 9.284,30.508 9.597,30.818 L10.164,31.382 C10.476,31.692 10.985,31.692 11.297,31.382 L12.927,29.763 L11.227,28.074 ZM14.490,31.316 L12.861,32.935 C12.709,33.085 12.626,33.285 12.626,33.498 C12.626,33.710 12.709,33.910 12.861,34.060 L13.428,34.623 C13.740,34.933 14.248,34.933 14.561,34.623 L16.190,33.005 L14.490,31.316 ZM17.754,34.558 L16.125,36.177 C15.812,36.487 15.812,36.992 16.125,37.302 L16.692,37.866 C17.004,38.176 17.513,38.176 17.825,37.866 L19.454,36.247 L17.754,34.558 ZM29.612,7.492 L18.865,5.581 C18.857,5.580 18.849,5.578 18.841,5.577 C15.122,4.832 11.490,7.231 10.741,10.923 L10.238,13.401 C10.085,14.152 10.236,14.917 10.663,15.554 C11.089,16.192 11.741,16.626 12.496,16.777 C14.057,17.090 15.581,16.084 15.895,14.534 L16.398,12.056 C16.503,11.540 16.960,11.175 17.481,11.175 C17.513,11.175 17.546,11.176 17.579,11.179 L23.855,11.724 C24.114,11.746 24.357,11.859 24.541,12.041 L36.814,24.232 L41.640,19.440 L30.935,8.807 L29.612,7.492 ZM46.321,13.227 L36.403,3.375 C36.192,3.167 35.913,3.052 35.616,3.052 C35.319,3.052 35.039,3.167 34.829,3.375 L32.498,5.690 C32.288,5.899 32.173,6.177 32.173,6.472 C32.173,6.767 32.288,7.044 32.498,7.253 L43.203,17.886 L46.321,14.790 C46.531,14.581 46.647,14.303 46.647,14.008 C46.647,13.713 46.531,13.435 46.321,13.227 ZM43.644,15.543 C43.033,15.543 42.538,15.051 42.538,14.444 C42.538,13.838 43.033,13.346 43.644,13.346 C44.255,13.346 44.750,13.838 44.750,14.444 C44.750,15.051 44.255,15.543 43.644,15.543 Z"/>
</svg>