<svg 
 xmlns="http://www.w3.org/2000/svg"
 xmlns:xlink="http://www.w3.org/1999/xlink"
 width="47px" height="51px">
<path fill-rule="evenodd"  fill="rgb(2, 75, 118)"
 d="M34.966,26.041 C33.301,28.488 30.873,30.376 28.025,31.362 C28.421,31.811 28.661,32.399 28.661,33.043 C28.661,34.109 28.003,35.024 27.071,35.405 C28.050,36.344 28.661,37.662 28.661,39.121 C28.661,40.617 28.032,42.000 26.923,42.978 L26.923,43.463 C26.923,44.450 27.727,45.254 28.716,45.254 C30.603,45.254 32.138,46.787 32.138,48.673 L32.138,49.541 C32.138,49.991 31.773,50.355 31.324,50.355 L15.676,50.355 C15.226,50.355 14.861,49.991 14.861,49.541 L14.861,48.673 C14.861,46.787 16.397,45.254 18.284,45.254 C19.273,45.254 20.077,44.450 20.077,43.463 L20.077,42.978 C18.968,42.000 18.339,40.617 18.339,39.121 C18.339,37.662 18.950,36.344 19.928,35.405 C18.997,35.024 18.339,34.109 18.339,33.043 C18.339,32.399 18.579,31.811 18.974,31.362 C16.127,30.376 13.698,28.488 12.033,26.041 C5.908,25.952 0.953,20.948 0.953,14.809 L0.953,9.599 C0.953,8.193 2.098,7.049 3.506,7.049 L9.646,7.049 L9.646,5.070 C8.636,4.729 7.907,3.775 7.907,2.653 C7.907,1.246 9.053,0.102 10.461,0.102 L36.539,0.102 C37.947,0.102 39.093,1.246 39.093,2.653 C39.093,3.775 38.364,4.729 37.354,5.070 L37.354,7.049 L43.493,7.049 C44.902,7.049 46.047,8.193 46.047,9.599 L46.047,14.809 C46.047,20.948 41.091,25.952 34.966,26.041 ZM18.284,46.882 C17.296,46.882 16.491,47.685 16.491,48.673 L16.491,48.727 L30.509,48.727 L30.509,48.673 C30.509,47.685 29.704,46.882 28.716,46.882 C26.828,46.882 25.293,45.348 25.293,43.463 L25.293,43.408 L21.707,43.408 L21.707,43.463 C21.707,45.348 20.172,46.882 18.284,46.882 ZM21.181,41.781 L25.819,41.781 C26.592,41.110 27.031,40.155 27.031,39.121 C27.031,37.176 25.447,35.594 23.500,35.594 C21.553,35.594 19.968,37.176 19.968,39.121 C19.968,40.155 20.408,41.110 21.181,41.781 ZM20.892,33.966 L26.108,33.966 C26.617,33.966 27.031,33.552 27.031,33.043 C27.031,32.535 26.617,32.121 26.108,32.121 L20.892,32.121 C20.383,32.121 19.968,32.535 19.968,33.043 C19.968,33.552 20.383,33.966 20.892,33.966 ZM11.276,18.282 C11.276,25.015 16.759,30.493 23.500,30.493 C30.240,30.493 35.724,25.015 35.724,18.282 L35.724,5.203 L11.276,5.203 L11.276,18.282 ZM3.506,8.677 C2.997,8.677 2.583,9.090 2.583,9.599 L2.583,14.809 C2.583,19.717 6.286,23.776 11.048,24.345 C10.150,22.513 9.646,20.456 9.646,18.282 L9.646,8.677 L3.506,8.677 ZM37.463,2.653 C37.463,2.144 37.048,1.730 36.539,1.730 L10.461,1.730 C9.951,1.730 9.537,2.144 9.537,2.653 C9.537,3.161 9.951,3.575 10.461,3.575 L36.539,3.575 C37.048,3.575 37.463,3.161 37.463,2.653 ZM44.417,9.599 C44.417,9.090 44.003,8.677 43.493,8.677 L37.354,8.677 L37.354,18.282 C37.354,20.456 36.849,22.513 35.951,24.345 C40.713,23.776 44.417,19.717 44.417,14.809 L44.417,9.599 ZM30.104,26.272 C29.952,26.398 29.768,26.459 29.586,26.459 C29.351,26.459 29.118,26.358 28.957,26.163 C28.670,25.817 28.719,25.304 29.066,25.017 C31.088,23.347 32.247,20.892 32.247,18.282 L32.247,13.072 C32.247,12.623 32.612,12.258 33.062,12.258 C33.512,12.258 33.877,12.623 33.877,13.072 L33.877,18.282 C33.877,21.379 32.502,24.291 30.104,26.272 ZM33.062,10.413 C32.612,10.413 32.247,10.049 32.247,9.599 L32.247,7.862 C32.247,7.413 32.612,7.049 33.062,7.049 C33.512,7.049 33.877,7.413 33.877,7.862 L33.877,9.599 C33.877,10.049 33.512,10.413 33.062,10.413 Z"/>
</svg>