<svg 
 xmlns="http://www.w3.org/2000/svg"
 xmlns:xlink="http://www.w3.org/1999/xlink"
 width="37px" height="50px">
<path fill-rule="evenodd"  fill="rgb(2, 75, 118)"
 d="M33.647,49.188 L3.345,49.188 C1.981,49.188 0.872,48.079 0.872,46.716 L0.872,4.642 C0.872,3.279 1.981,2.171 3.345,2.171 L5.081,2.171 L5.081,1.276 C5.081,0.841 5.434,0.488 5.870,0.488 C6.306,0.488 6.659,0.841 6.659,1.276 L6.659,2.171 L10.131,2.171 L10.131,1.276 C10.131,0.841 10.484,0.488 10.920,0.488 C11.356,0.488 11.709,0.841 11.709,1.276 L11.709,2.171 L15.181,2.171 L15.181,1.276 C15.181,0.841 15.534,0.488 15.970,0.488 C16.406,0.488 16.759,0.841 16.759,1.276 L16.759,2.171 L20.232,2.171 L20.232,1.276 C20.232,0.841 20.585,0.488 21.021,0.488 C21.457,0.488 21.810,0.841 21.810,1.276 L21.810,2.171 L25.282,2.171 L25.282,1.276 C25.282,0.841 25.635,0.488 26.071,0.488 C26.507,0.488 26.860,0.841 26.860,1.276 L26.860,2.171 L30.332,2.171 L30.332,1.276 C30.332,0.841 30.685,0.488 31.121,0.488 C31.557,0.488 31.910,0.841 31.910,1.276 L31.910,2.171 L33.647,2.171 C35.010,2.171 36.119,3.279 36.119,4.642 L36.119,46.716 C36.119,48.079 35.010,49.188 33.647,49.188 ZM34.541,4.642 C34.541,4.149 34.140,3.748 33.647,3.748 L31.910,3.748 L31.910,4.642 C31.910,5.078 31.557,5.431 31.121,5.431 C30.685,5.431 30.332,5.078 30.332,4.642 L30.332,3.748 L26.860,3.748 L26.860,4.642 C26.860,5.078 26.507,5.431 26.071,5.431 C25.635,5.431 25.282,5.078 25.282,4.642 L25.282,3.748 L21.810,3.748 L21.810,4.642 C21.810,5.078 21.457,5.431 21.021,5.431 C20.585,5.431 20.232,5.078 20.232,4.642 L20.232,3.748 L16.759,3.748 L16.759,4.642 C16.759,5.078 16.406,5.431 15.970,5.431 C15.534,5.431 15.181,5.078 15.181,4.642 L15.181,3.748 L11.709,3.748 L11.709,4.642 C11.709,5.078 11.356,5.431 10.920,5.431 C10.484,5.431 10.131,5.078 10.131,4.642 L10.131,3.748 L6.659,3.748 L6.659,4.642 C6.659,5.078 6.306,5.431 5.870,5.431 C5.434,5.431 5.081,5.078 5.081,4.642 L5.081,3.748 L3.345,3.748 C2.851,3.748 2.450,4.149 2.450,4.642 L2.450,46.716 C2.450,47.209 2.851,47.610 3.345,47.610 L33.647,47.610 C34.140,47.610 34.541,47.209 34.541,46.716 L34.541,4.642 ZM31.121,41.615 L15.970,41.615 C15.534,41.615 15.181,41.262 15.181,40.826 C15.181,40.390 15.534,40.037 15.970,40.037 L31.121,40.037 C31.557,40.037 31.910,40.390 31.910,40.826 C31.910,41.262 31.557,41.615 31.121,41.615 ZM15.970,36.671 L27.754,36.671 C28.190,36.671 28.544,37.024 28.544,37.460 C28.544,37.896 28.190,38.249 27.754,38.249 L15.970,38.249 C15.534,38.249 15.181,37.896 15.181,37.460 C15.181,37.024 15.534,36.671 15.970,36.671 ZM31.121,33.200 L15.970,33.200 C15.534,33.200 15.181,32.847 15.181,32.411 C15.181,31.975 15.534,31.622 15.970,31.622 L31.121,31.622 C31.557,31.622 31.910,31.975 31.910,32.411 C31.910,32.847 31.557,33.200 31.121,33.200 ZM15.970,28.256 L27.754,28.256 C28.190,28.256 28.544,28.609 28.544,29.045 C28.544,29.481 28.190,29.834 27.754,29.834 L15.970,29.834 C15.534,29.834 15.181,29.481 15.181,29.045 C15.181,28.609 15.534,28.256 15.970,28.256 ZM31.121,24.785 L15.970,24.785 C15.534,24.785 15.181,24.432 15.181,23.996 C15.181,23.560 15.534,23.207 15.970,23.207 L31.121,23.207 C31.557,23.207 31.910,23.560 31.910,23.996 C31.910,24.432 31.557,24.785 31.121,24.785 ZM15.970,19.842 L27.754,19.842 C28.190,19.842 28.544,20.195 28.544,20.630 C28.544,21.066 28.190,21.419 27.754,21.419 L15.970,21.419 C15.534,21.419 15.181,21.066 15.181,20.630 C15.181,20.195 15.534,19.842 15.970,19.842 ZM31.121,16.370 L15.970,16.370 C15.534,16.370 15.181,16.017 15.181,15.582 C15.181,15.146 15.534,14.793 15.970,14.793 L31.121,14.793 C31.557,14.793 31.910,15.146 31.910,15.582 C31.910,16.017 31.557,16.370 31.121,16.370 ZM27.754,13.004 L15.970,13.004 C15.534,13.004 15.181,12.652 15.181,12.216 C15.181,11.780 15.534,11.427 15.970,11.427 L27.754,11.427 C28.190,11.427 28.544,11.780 28.544,12.216 C28.544,12.652 28.190,13.004 27.754,13.004 ZM8.953,41.384 C8.799,41.538 8.597,41.615 8.395,41.615 C8.193,41.615 7.991,41.538 7.837,41.384 L5.312,38.859 C5.004,38.551 5.004,38.052 5.312,37.744 C5.620,37.436 6.119,37.436 6.428,37.744 L8.395,39.710 L12.045,36.061 C12.354,35.753 12.853,35.753 13.162,36.061 C13.470,36.369 13.470,36.868 13.162,37.176 L8.953,41.384 ZM8.953,32.969 C8.799,33.123 8.597,33.200 8.395,33.200 C8.193,33.200 7.991,33.123 7.837,32.969 L5.312,30.445 C5.004,30.137 5.004,29.637 5.312,29.329 C5.620,29.021 6.119,29.021 6.428,29.329 L8.395,31.295 L12.045,27.646 C12.354,27.338 12.853,27.338 13.162,27.646 C13.470,27.954 13.470,28.453 13.162,28.762 L8.953,32.969 ZM8.953,24.554 C8.799,24.708 8.597,24.785 8.395,24.785 C8.193,24.785 7.991,24.708 7.837,24.554 L5.312,22.030 C5.004,21.722 5.004,21.222 5.312,20.914 C5.620,20.606 6.119,20.606 6.428,20.914 L8.395,22.881 L12.045,19.231 C12.354,18.923 12.853,18.923 13.162,19.231 C13.470,19.539 13.470,20.039 13.162,20.347 L8.953,24.554 ZM8.953,16.140 C8.799,16.293 8.597,16.370 8.395,16.370 C8.193,16.370 7.991,16.293 7.837,16.140 L5.312,13.615 C5.004,13.307 5.004,12.808 5.312,12.499 C5.620,12.191 6.119,12.191 6.428,12.499 L8.395,14.466 L12.045,10.816 C12.354,10.508 12.853,10.508 13.162,10.816 C13.470,11.124 13.470,11.624 13.162,11.932 L8.953,16.140 Z"/>
</svg>