<svg 
 xmlns="http://www.w3.org/2000/svg"
 xmlns:xlink="http://www.w3.org/1999/xlink"
 width="43px" height="46px">
<path fill-rule="evenodd"  fill="rgb(2, 75, 118)"
 d="M31.703,45.851 L20.915,34.958 L23.079,32.771 L30.171,39.934 L30.171,11.558 C30.171,7.164 26.632,3.588 22.279,3.588 L21.157,3.588 L21.157,0.497 L22.279,0.497 C28.320,0.497 33.233,5.459 33.233,11.559 L33.233,39.934 L40.324,32.773 L42.490,34.957 L31.703,45.851 ZM19.661,13.078 L12.569,5.917 L12.569,34.292 C12.569,38.686 16.108,42.262 20.460,42.262 L20.460,42.261 L21.583,42.261 L21.583,45.351 L20.461,45.351 C14.422,45.351 9.508,40.389 9.508,34.291 L9.508,5.916 L2.417,13.077 L0.251,10.892 L11.038,-0.002 L21.826,10.892 L19.661,13.078 Z"/>
</svg>