<svg 
 xmlns="http://www.w3.org/2000/svg"
 xmlns:xlink="http://www.w3.org/1999/xlink"
 width="43px" height="52px">
<path fill-rule="evenodd"  fill="rgb(2, 75, 118)"
 d="M38.053,25.748 L38.053,32.866 L34.882,32.866 L34.882,35.238 L23.782,35.238 L23.782,46.408 L30.174,46.408 C31.459,46.408 32.504,47.450 32.504,48.731 C32.504,50.012 31.459,51.054 30.175,51.054 C28.890,51.054 27.846,50.012 27.846,48.731 C27.846,48.435 27.902,48.151 28.004,47.891 L14.903,47.891 C15.004,48.151 15.061,48.435 15.061,48.731 C15.061,50.012 14.016,51.054 12.732,51.054 C11.448,51.054 10.403,50.012 10.403,48.731 C10.403,47.450 11.448,46.408 12.732,46.408 L19.124,46.408 L19.124,35.238 L8.024,35.238 L8.024,32.866 L4.853,32.866 L4.853,25.748 L0.889,25.748 L0.889,21.102 L7.925,21.102 L7.925,25.748 L6.340,25.748 L6.340,31.383 L8.024,31.383 L8.024,29.010 L19.124,29.010 L19.124,27.330 L9.610,27.330 L9.610,0.542 L33.296,0.542 L33.296,27.330 L23.782,27.330 L23.782,29.010 L34.882,29.010 L34.882,31.383 L36.567,31.383 L36.567,25.748 L34.981,25.748 L34.981,21.102 L42.018,21.102 L42.018,25.748 L38.053,25.748 ZM30.174,49.571 C30.639,49.571 31.017,49.194 31.017,48.731 C31.017,48.267 30.639,47.891 30.174,47.891 C29.710,47.891 29.332,48.267 29.332,48.731 C29.332,49.194 29.710,49.571 30.174,49.571 ZM12.732,47.891 C12.267,47.891 11.890,48.267 11.890,48.731 C11.890,49.194 12.267,49.571 12.732,49.571 C13.196,49.571 13.574,49.194 13.574,48.731 C13.574,48.267 13.196,47.891 12.732,47.891 ZM6.439,24.266 L6.439,22.585 L2.375,22.585 L2.375,24.266 L6.439,24.266 ZM20.611,46.408 L22.296,46.408 L22.296,35.238 L20.611,35.238 L20.611,46.408 ZM31.810,25.847 L31.810,2.025 L11.097,2.025 L11.097,25.847 L31.810,25.847 ZM20.611,27.330 L20.611,29.010 L22.296,29.010 L22.296,27.330 L20.611,27.330 ZM33.395,30.493 L9.511,30.493 L9.511,33.755 L33.395,33.755 L33.395,30.493 ZM40.531,22.585 L36.468,22.585 L36.468,24.266 L40.531,24.266 L40.531,22.585 ZM30.125,6.028 L28.638,6.028 L28.638,3.656 L30.125,3.656 L30.125,6.028 ZM30.125,13.936 L28.638,13.936 L28.638,7.609 L30.125,7.609 L30.125,13.936 Z"/>
</svg>