<?xml version="1.0" encoding="iso-8859-1"?>
<!-- Generator: Adobe Illustrator 19.0.0, SVG Export Plug-In . SVG Version: 6.00 Build 0)  -->
<svg version="1.1" id="Capa_1" xmlns="http://www.w3.org/2000/svg" xmlns:xlink="http://www.w3.org/1999/xlink" x="0px" y="0px"
	 viewBox="0 0 490 490" style="enable-background:new 0 0 490 490;" xml:space="preserve">
<g>
	<path d="M117.077,372.699c9.825,0,16.344-1.585,19.544-4.74c3.2-3.17,4.8-9.6,4.8-19.275v-52.009h-14.296v50.244
		c0,5.742-0.598,9.436-1.795,11.066c-1.196,1.645-3.888,2.467-8.09,2.467c-7.028,0-10.662-2.288-10.871-6.849
		c-0.12-1.884-0.165-3.484-0.165-4.815c0-1.391-0.12-3.484-0.344-6.295H92.224l-0.165,5.578c0,10.318,1.555,17.002,4.666,20.053
		C99.835,371.174,106.624,372.699,117.077,372.699z"/>
	<path d="M167.77,357.581h32.524l4.8,14.46h14.864l-25.466-75.366h-21.473l-25.077,75.366h15.133L167.77,357.581z M183.949,307.77
		l13.025,39.253h-25.84L183.949,307.77z"/>
	<path d="M265.566,372.041l24.3-75.366h-15.133l-13.967,42.737c-1.256,3.828-2.766,8.942-4.531,15.342l-1.436,5.144h-0.389
		c-2.617-9.615-4.591-16.464-5.907-20.546l-14.146-42.678h-14.849l24.075,75.366H265.566z"/>
	<path d="M304.491,372.041l4.695-14.46h32.524l4.815,14.46h14.849l-25.451-75.366h-21.488l-25.062,75.366H304.491z M325.366,307.77
		l13.04,39.253h-25.84L325.366,307.77z"/>
	<path d="M77.788,0v265.111H42.189v139.615h0.001l35.59,35.591L77.788,490h370.023V102.422L345.388,0H77.788z M395.793,389.413
		H57.501v-108.99h338.292V389.413z M353.022,36.962l57.816,57.804h-57.816V36.962z"/>
</g>
<g>
</g>
<g>
</g>
<g>
</g>
<g>
</g>
<g>
</g>
<g>
</g>
<g>
</g>
<g>
</g>
<g>
</g>
<g>
</g>
<g>
</g>
<g>
</g>
<g>
</g>
<g>
</g>
<g>
</g>
</svg>
